<svg id="svg" xmlns="http://www.w3.org/2000/svg" xmlns:xlink="http://www.w3.org/1999/xlink" width="400" height="457.89473684210526" viewBox="0, 0, 400,457.89473684210526"><g id="svgg"><path id="path0" d="M122.685 33.256 C 120.874 34.722,120.614 35.685,120.614 40.931 L 120.614 46.930 92.039 47.368 L 63.464 47.807 59.908 50.161 C 57.757 51.586,55.612 54.047,54.475 56.394 L 52.598 60.273 52.623 235.556 L 52.648 410.839 54.856 414.607 C 56.147 416.810,58.634 419.295,60.846 420.591 L 64.628 422.807 139.932 422.807 C 226.065 422.807,220.288 423.331,225.544 415.043 L 228.083 411.040 227.857 234.622 L 227.632 58.205 225.518 55.120 C 220.571 47.901,220.299 47.839,192.391 47.549 L 167.544 47.291 167.544 41.253 C 167.544 31.635,167.408 31.579,143.839 31.579 C 126.357 31.579,124.582 31.720,122.685 33.256 M157.785 38.268 C 160.205 38.752,160.526 39.162,160.526 41.776 L 160.526 44.737 143.860 44.737 L 127.193 44.737 127.193 41.728 C 127.193 39.304,127.577 38.644,129.167 38.338 C 132.353 37.725,154.793 37.669,157.785 38.268 M253.509 235.088 L 253.509 421.053 285.965 421.053 L 318.421 421.053 318.421 235.088 L 318.421 49.123 285.965 49.123 L 253.509 49.123 253.509 235.088 M216.036 55.495 C 221.995 59.400,221.491 42.825,221.491 235.088 C 221.491 427.352,221.995 410.776,216.035 414.681 C 212.384 417.073,68.318 417.073,64.667 414.681 C 58.717 410.782,59.239 426.828,58.949 239.074 C 58.805 145.938,58.936 67.635,59.240 65.066 C 59.902 59.459,63.000 55.485,67.556 54.395 C 74.362 52.767,213.446 53.797,216.036 55.495 M311.404 235.088 L 311.404 414.035 285.965 414.035 L 260.526 414.035 260.526 235.088 L 260.526 56.140 285.965 56.140 L 311.404 56.140 311.404 235.088 M142.164 156.030 C 141.527 157.221,141.228 177.057,141.228 218.196 C 141.228 283.190,141.150 282.080,145.663 281.443 L 147.807 281.140 147.807 217.982 L 147.807 154.825 145.454 154.553 C 143.817 154.364,142.815 154.813,142.164 156.030 " stroke="none" fill="#000000" fill-rule="evenodd"></path></g></svg>