<svg id="svg" xmlns="http://www.w3.org/2000/svg" xmlns:xlink="http://www.w3.org/1999/xlink" width="400" height="294.0711462450593" viewBox="0, 0, 400,294.0711462450593"><g id="svgg"><path id="path0" d="M101.898 27.520 C 86.801 34.096,86.664 35.046,87.262 129.135 C 87.903 229.806,81.087 220.355,153.518 221.012 L 204.044 221.470 203.603 174.109 C 203.269 138.269,203.609 127.119,204.999 128.274 C 206.010 129.114,225.575 150.397,248.478 175.570 L 290.119 221.340 307.250 221.342 L 324.381 221.344 302.438 197.233 C 222.488 109.387,224.873 119.942,274.308 72.703 C 290.830 56.915,308.609 39.790,313.818 34.647 L 323.289 25.296 304.730 25.296 L 286.172 25.296 245.458 64.363 L 204.743 103.430 204.320 64.363 L 203.897 25.296 155.308 25.358 C 118.496 25.405,105.551 25.929,101.898 27.520 M91.700 248.880 C 91.700 264.105,92.100 267.194,94.071 267.194 C 95.812 267.194,96.443 265.384,96.443 260.395 C 96.443 254.300,98.479 249.802,101.239 249.802 C 101.790 249.802,104.936 253.715,108.230 258.498 C 111.994 263.963,115.352 267.194,117.268 267.194 C 119.847 267.194,119.207 265.637,113.123 257.111 C 104.456 244.965,104.522 246.322,112.253 239.338 C 115.731 236.195,118.577 232.995,118.577 232.227 C 118.577 228.768,113.838 231.518,105.875 239.598 L 97.233 248.367 96.443 240.116 C 94.845 223.444,91.700 229.257,91.700 248.880 M137.510 234.783 C 136.662 236.957,135.195 240.692,134.251 243.083 C 125.884 264.258,125.053 267.194,127.424 267.194 C 128.734 267.194,130.846 264.704,132.118 261.660 C 134.272 256.505,134.914 256.126,141.502 256.126 C 148.090 256.126,148.732 256.505,150.886 261.660 C 153.020 266.767,159.548 270.079,157.631 265.081 C 145.415 233.249,140.812 226.318,137.510 234.783 M167.589 249.012 C 167.589 264.119,167.990 267.194,169.960 267.194 C 171.931 267.194,172.332 264.119,172.332 249.012 C 172.332 233.904,171.931 230.830,169.960 230.830 C 167.990 230.830,167.589 233.904,167.589 249.012 M184.980 249.012 C 184.980 264.119,185.381 267.194,187.352 267.194 C 189.108 267.194,189.723 265.349,189.723 260.079 L 189.723 252.964 195.945 252.964 C 204.835 252.964,210.026 250.562,211.194 245.906 C 213.771 235.641,207.852 230.830,192.649 230.830 L 184.980 230.830 184.980 249.012 M222.925 244.846 C 222.925 265.673,233.969 274.610,246.833 264.194 C 251.163 260.688,252.682 232.627,248.617 231.241 C 247.151 230.741,246.640 233.638,246.640 242.453 C 246.640 261.392,241.360 268.187,231.609 261.798 C 227.893 259.363,227.668 258.406,227.668 245.023 C 227.668 233.461,227.228 230.830,225.296 230.830 C 223.367 230.830,222.925 233.441,222.925 244.846 M263.505 231.884 C 262.925 232.464,262.451 240.646,262.451 250.066 L 262.451 267.194 274.259 267.194 C 284.105 267.194,285.916 266.800,285.157 264.822 C 284.503 263.120,281.841 262.451,275.720 262.451 L 267.194 262.451 267.194 246.640 C 267.194 232.156,266.401 228.987,263.505 231.884 M295.652 249.012 L 295.652 267.194 309.091 267.194 C 319.982 267.194,322.530 266.744,322.530 264.822 C 322.530 262.940,320.246 262.451,311.462 262.451 L 300.395 262.451 300.395 256.917 L 300.395 251.383 309.881 251.383 C 317.260 251.383,319.368 250.856,319.368 249.012 C 319.368 247.167,317.260 246.640,309.881 246.640 L 300.395 246.640 300.395 241.107 L 300.395 235.573 310.672 235.573 C 318.753 235.573,320.949 235.066,320.949 233.202 C 320.949 231.291,318.489 230.830,308.300 230.830 L 295.652 230.830 295.652 249.012 M206.154 239.130 C 209.107 243.839,205.463 247.362,197.071 247.913 L 189.723 248.395 189.723 241.897 L 189.723 235.400 197.071 235.882 C 201.969 236.203,204.998 237.286,206.154 239.130 M146.156 249.407 C 147.148 252.636,146.727 252.964,141.609 252.964 C 135.096 252.964,135.099 252.974,138.664 243.640 L 141.359 236.582 143.212 241.216 C 144.230 243.765,145.555 247.451,146.156 249.407 " stroke="none" fill="#000000" fill-rule="evenodd"></path></g></svg>